<svg xmlns="http://www.w3.org/2000/svg" viewBox="0 0 610.34 343.5">
<path d="M607.33,168.5S587.17,146.17,566,137.17s-31.67,7.33-31.67,7.33v20.67s-15.5-1-21.66-.84-7,6.5-11.17,17-21,15.84-21,15.84-5.33,23.16-12.5,23.16-9.33,2.67-9.33,2.67L435.5,256h-41l-4.67-6.83-9.33-.67-10-9.83,5.33.5,10.5,1.83s10.67-5.33,9.59-12-13.25-5.5-13.25-5.5v-2l6.16-9V173.17L357.17,130.5l-6.84-.83,32.84-23,5.66-.5s9.5-.34,6.5-27.5S374.5,38,374.5,38l-10.83-4.17-27-.66-43-32-5,.16L287.33,4l-7-4-7.5,1.17h-8l.17,9.66c-7,3.67-3.17,8.5-3.17,8.5C275.83,29.67,293,53.5,293,53.5l-.83.83-9.34-.5s-5.33-.5-6.83-2.33-8,2.5-2.5,10,18.33,6.83,18.33,6.83l3.5,3.34L260.5,108.5l-3.33-4-28-.5c-4-42.33-34-50-34-50H150c-38.17,11-34.17,53.83-34.17,53.83l.36.53-2.52.14c-.5,0-20,1-20,1l-4.34,1.17-5.16,5-7,5.83L71,125.17l-5.83,3-5-2.34-3.5-4.33-2-5.83-1.5-7-1.5-5.5s-5.84-3.34-6.34-3.34-4.66-1-4.66-1l-4.84,1.84-8,2.83-2.16,3-1.5.83-3.67-2.16s-8.33-4.67-12.67-7.34-5.33,2-5.33,2l14,7.27-.22-.1L4.67,101,0,101.83v2.5l1.67,3.34,5.66,1.83,4,.51,1.7.22.54.07,7.64,8.2,8.33,12.17,2,6.16,4.33,7.67,9.84,6,12.5,3.33,9.83,1.5,12.5.5,6.83,2,11,2.84s23.17,2.66,24,2.66c.26,0,2.28.46,4.93,1.09l3.82,7.33,2.5,14.25,1.25,6.25,1.75,3.5-3,3.25v10.75l10.75,2.5v6.5l7,2.25v7.59l-1.16,1.24-5.5,6.34.5,4.5,3.33-.84,6.33-3.83a33.58,33.58,0,0,1,1.17,7.5c0,3.33,11.67,16.5,11.67,16.5S197,287.5,204.5,290,226,307.33,226,307.33l21.17,7.84s11.66-1.17,15.16,5.5,5,6.16,5,6.16c7-2.83,14.17.34,14.17.34L298.83,338s27.67-.67,30.34.33,15.83-1.83,18.33-4S359,331.5,359,331.5l9.83,12h8s15-5,16.34-9S407,327.17,407,327.17s40.17-2.84,49.83-12.17a38.78,38.78,0,0,1,21.5-10.33c20.17-3.34,28.17-18,28.84-19.67s16.66-29.33,16.83-30.67S547.17,224,547.17,224c3.66-18,16.33-26.33,16.33-26.33,11.67,5,17.83-4.67,17.83-4.67l19.5,2C617.33,191.83,607.33,168.5,607.33,168.5Z" fill="#262160"/>
</svg>